<?xml version="1.0" standalone="no"?>
<!DOCTYPE svg PUBLIC "-//W3C//DTD SVG 20010904//EN"
 "http://www.w3.org/TR/2001/REC-SVG-20010904/DTD/svg10.dtd">
<svg version="1.0" xmlns="http://www.w3.org/2000/svg"
 width="320.000000pt" height="320.000000pt" viewBox="0 0 320.000000 320.000000"
 preserveAspectRatio="xMidYMid meet">
<metadata>
Created by potrace 1.16, written by Peter Selinger 2001-2019
</metadata>
<g transform="translate(0.000000,320.000000) scale(0.100000,-0.100000)"
fill="#000000" stroke="none">
<path d="M944 3181 c-17 -10 -42 -17 -55 -14 -18 3 -33 -5 -62 -35 -43 -44
-46 -75 -9 -80 13 -2 32 -11 42 -20 10 -9 29 -26 43 -37 34 -26 33 -33 -3 -64
l-31 -26 8 -85 8 -85 42 -20 c23 -11 48 -27 55 -37 7 -9 22 -18 32 -20 23 -4
34 -28 13 -28 -8 0 -26 -9 -40 -20 -22 -17 -26 -28 -23 -60 3 -33 -2 -44 -31
-72 -20 -20 -32 -40 -30 -50 3 -12 -4 -20 -23 -27 -21 -7 -36 -25 -54 -64 -15
-32 -36 -58 -50 -65 -14 -6 -39 -31 -58 -55 -28 -38 -40 -45 -85 -53 -46 -9
-52 -8 -56 8 -8 31 -38 20 -88 -31 -60 -61 -66 -96 -18 -114 27 -11 30 -15 25
-42 -6 -32 15 -75 37 -75 13 0 38 -68 43 -113 2 -31 -18 -46 -40 -28 -9 8 -22
8 -45 0 -17 -6 -39 -8 -49 -4 -9 4 -36 7 -60 7 -33 1 -47 -4 -58 -21 -8 -11
-13 -21 -9 -21 3 0 -1 -10 -10 -23 -14 -22 -13 -25 23 -59 49 -48 84 -61 130
-48 41 11 49 8 28 -9 -27 -22 -102 -41 -115 -28 -8 8 -14 8 -23 -1 -8 -8 3
-28 46 -81 90 -110 118 -131 163 -124 51 8 104 32 125 57 10 12 18 39 18 61 1
32 3 37 11 22 5 -9 8 -21 4 -26 -3 -5 -1 -13 5 -16 6 -4 8 -14 5 -24 -3 -10 1
-35 8 -57 12 -33 12 -44 0 -73 -12 -27 -13 -46 -5 -86 5 -27 9 -61 7 -75 -1
-14 1 -29 6 -35 4 -5 8 -13 8 -17 1 -5 1 -9 2 -10 7 -25 14 -62 24 -143 4 -27
14 -66 22 -85 29 -66 48 -105 60 -120 17 -22 52 -119 57 -160 6 -46 42 -129
68 -157 20 -21 72 -123 62 -123 -2 0 3 -14 12 -32 9 -17 18 -45 20 -62 13 -94
92 -196 151 -196 42 0 88 32 88 60 0 18 9 28 30 38 53 23 58 28 60 50 1 12 9
30 18 40 9 10 17 24 17 30 0 6 15 12 33 14 l32 3 0 90 c0 70 4 97 18 118 9 15
15 27 11 27 -4 0 -1 7 6 15 6 8 16 31 20 50 6 28 5 38 -6 42 -9 3 -12 13 -9
24 3 10 2 27 -4 37 -6 12 -6 23 -1 28 6 6 5 23 -2 46 -19 63 20 120 72 103 16
-5 23 1 36 28 14 30 22 35 49 34 46 -1 86 27 83 59 -2 21 5 30 37 48 22 12 49
36 60 54 11 17 30 36 43 43 25 14 137 148 137 164 0 5 14 10 32 11 73 4 147
82 132 138 -8 29 3 56 23 56 5 0 25 7 46 17 20 9 43 15 50 14 8 -1 20 3 27 9
8 7 19 9 24 6 21 -13 31 31 17 71 -7 21 -12 49 -11 63 2 14 -8 39 -21 57 -20
27 -23 36 -13 51 16 25 5 52 -19 52 -11 0 -25 7 -32 15 -9 11 -8 19 7 39 10
14 27 26 38 28 29 4 24 29 -9 48 -40 21 -53 44 -38 63 14 17 57 16 89 -1 12
-7 29 -9 37 -6 16 6 17 2 20 -60 2 -28 38 -37 145 -34 80 3 96 0 97 -12 0 -23
-34 -68 -64 -82 -47 -23 -46 -75 3 -126 19 -19 24 -20 34 -8 6 8 11 18 9 22
-3 14 12 54 21 54 9 0 13 -15 40 -139 20 -96 78 -83 67 15 -5 41 -3 53 9 58 9
3 15 16 14 28 -1 13 -1 37 -1 54 2 29 5 32 34 30 28 -1 33 3 39 29 3 17 13 45
22 64 11 27 12 39 4 53 -9 14 -8 20 6 30 23 17 36 67 26 96 -7 19 -1 31 38 72
48 51 86 68 109 50 22 -19 36 -2 20 22 -14 19 -13 24 4 49 11 15 20 31 20 37
0 17 -26 32 -62 34 -30 3 -34 5 -25 20 13 19 -8 52 -27 41 -6 -3 -8 -3 -4 2
10 11 -10 45 -27 45 -8 0 -25 -10 -37 -22 -23 -23 -52 -25 -77 -5 -10 9 -19 4
-41 -20 -15 -17 -29 -35 -31 -41 -2 -6 -15 -13 -29 -15 -14 -2 -30 -14 -37
-27 -6 -13 -23 -30 -38 -37 -14 -8 -23 -18 -20 -24 4 -5 -1 -11 -9 -14 -9 -3
-24 -8 -33 -12 -10 -3 -25 -7 -33 -7 -25 -2 -18 -41 8 -44 34 -5 31 -50 -5
-57 -16 -3 -44 -10 -63 -15 -20 -6 -38 -6 -43 -1 -5 5 -22 4 -40 -4 -22 -9
-38 -10 -50 -4 -9 6 -22 7 -28 3 -6 -3 -18 1 -28 10 -14 12 -17 28 -15 60 5
56 -12 74 -52 53 -22 -11 -27 -22 -30 -59 -3 -25 0 -56 4 -69 5 -13 7 -31 3
-39 -7 -18 -76 -26 -86 -10 -4 7 -11 8 -18 1 -11 -9 -75 4 -118 23 -9 4 -20 6
-25 5 -17 -4 -49 14 -70 39 -21 26 -30 27 -127 22 -22 -1 -45 4 -55 13 -17 14
-70 32 -85 28 -5 -1 -25 12 -45 28 -21 16 -60 39 -88 51 l-51 22 15 52 c9 33
25 59 43 74 38 30 37 40 -6 58 -19 8 -35 19 -35 25 0 5 -19 19 -42 29 -24 10
-49 29 -56 40 -11 17 -16 19 -28 10 -12 -11 -14 -7 -14 23 0 19 -8 49 -17 66
-20 33 -10 55 11 26 12 -17 15 -17 50 10 24 18 33 31 27 39 -5 6 -11 22 -13
36 -2 17 -10 26 -25 28 -24 3 -31 26 -13 37 8 5 8 11 0 20 -9 11 -5 14 17 17
19 2 32 12 41 30 7 16 21 32 31 38 19 10 47 92 37 108 -10 17 -97 53 -109 45
-7 -4 -19 -6 -28 -5 -8 2 -40 -9 -69 -22 -53 -25 -54 -25 -67 -6 -8 11 -25 20
-39 20 -14 0 -24 6 -24 14 0 8 -14 25 -31 38 -18 13 -48 39 -69 59 -31 30 -44
37 -81 37 -28 1 -57 -6 -75 -17z"/>
</g>
</svg>
