<svg id="_x31__x2C_5px" enable-background="new 0 0 24 24" height="512" viewBox="0 0 24 24" width="512" xmlns="http://www.w3.org/2000/svg"><g><circle cx="9.5" cy="9.5" fill="#fff" r="8.75"/><path d="m10.796 14.75c-.374 0-.708-.197-.968-.35-.105-.062-.28-.165-.346-.177-.03.012-.205.116-.31.177-.335.197-.791.467-1.304.294-.511-.173-.728-.674-.887-1.039-.052-.121-.132-.305-.178-.354-.026-.006-.212-.028-.334-.042-.385-.046-.912-.109-1.224-.559-.3-.43-.203-.934-.126-1.338.025-.13.067-.348.054-.418-.021-.036-.161-.169-.252-.257-.283-.269-.671-.64-.671-1.187s.388-.918.672-1.189c.092-.088.231-.22.26-.278.005-.047-.037-.265-.062-.395-.079-.405-.175-.908.126-1.34.311-.448.839-.512 1.223-.558.123-.015.308-.037.364-.065.016-.027.096-.211.149-.332.159-.365.376-.865.887-1.039.51-.174.968.098 1.303.296.105.062.28.165.346.177.03-.012.205-.116.31-.177.335-.197.791-.467 1.304-.294.511.173.728.674.887 1.039.052.121.132.305.178.354.026.006.212.028.334.042.385.046.913.109 1.224.559.3.43.203.934.126 1.338-.025.13-.067.348-.054.418.021.036.161.169.252.257.283.27.671.641.671 1.188s-.388.918-.672 1.189c-.092.088-.231.22-.26.278-.005.047.037.265.062.395.078.405.174.908-.126 1.34-.311.448-.839.511-1.224.558-.123.015-.308.037-.364.065-.016.027-.096.211-.149.332-.159.365-.376.865-.887 1.039-.113.037-.225.053-.334.053z" fill="#00bcd4"/><path d="m8.75 11.5c-.261 0-.515-.136-.653-.379-.205-.36-.078-.818.282-1.023l.168-.096c.307-.173.59-.512.382-.896-.197-.364-.06-.819.304-1.016.363-.196.82-.061 1.017.304.567 1.051.163 2.276-.961 2.913l-.168.096c-.118.066-.245.097-.371.097z"/><path d="m10.981 15.501c-.428 0-.809-.225-1.106-.4-.12-.07-.32-.189-.395-.203-.035.014-.235.132-.355.203-.382.226-.908.535-1.489.336-.584-.198-.833-.77-1.014-1.188-.06-.139-.151-.348-.203-.405-.03-.006-.242-.032-.382-.048-.44-.053-1.042-.125-1.399-.638-.343-.493-.232-1.067-.143-1.529.028-.149.076-.398.062-.478-.024-.041-.183-.192-.288-.292-.326-.31-.769-.734-.769-1.359s.443-1.049.767-1.359c.105-.1.264-.252.297-.318.006-.054-.042-.303-.07-.452-.089-.462-.2-1.037.143-1.53.357-.513.959-.585 1.399-.638.141-.017.353-.042.417-.074.018-.03.108-.239.168-.378.181-.417.43-.99 1.015-1.188.583-.198 1.106.111 1.489.337.12.07.32.189.395.203.035-.015.235-.133.355-.204.382-.226.906-.535 1.489-.336.584.198.833.77 1.014 1.188.06.139.151.348.203.405.03.006.242.032.382.048.44.053 1.042.125 1.399.638.343.493.232 1.067.143 1.529-.028.149-.076.398-.062.478.024.041.183.192.288.292.326.31.769.734.769 1.359s-.443 1.049-.767 1.359c-.105.1-.264.252-.297.318-.006.054.042.304.07.452.089.462.2 1.037-.143 1.53-.357.513-.959.585-1.399.638-.141.017-.353.042-.417.074-.018.03-.108.239-.168.378-.181.417-.43.99-1.015 1.188-.131.045-.259.064-.383.064zm-1.481-2.102c.443 0 .828.227 1.137.409.068.041.157.092.233.133.046-.091.097-.208.132-.29.148-.342.316-.729.654-.986.348-.265.781-.316 1.129-.358.098-.012.231-.027.325-.047-.024-.075-.054-.233-.076-.348-.071-.368-.151-.786-.024-1.197.125-.405.424-.689.687-.941.08-.076.201-.191.269-.274-.068-.083-.188-.198-.268-.274-.263-.251-.562-.537-.687-.941-.127-.411-.047-.828.024-1.197.02-.105.047-.247.059-.351-.094-.018-.217-.033-.309-.044-.348-.042-.781-.094-1.128-.358-.337-.257-.506-.645-.654-.987-.036-.082-.086-.198-.132-.289-.076.04-.165.092-.233.132-.31.183-.695.41-1.138.41s-.828-.227-1.137-.409c-.069-.041-.157-.093-.233-.133-.046.091-.097.208-.132.29-.149.341-.317.728-.654.985-.348.265-.781.317-1.129.359-.098.012-.231.027-.325.047.024.075.054.233.076.348.071.368.152.786.024 1.197-.125.404-.424.689-.686.941-.08.076-.201.191-.269.274.068.083.188.198.268.274.263.251.562.537.687.941.127.411.047.828-.024 1.197-.02.105-.047.247-.059.351.093.018.216.033.308.044.348.042.781.094 1.128.358.337.257.506.645.654.987.036.082.086.198.132.289.076-.04.165-.092.233-.132.31-.183.695-.41 1.138-.41zm4.511-3.832h.01z"/><path d="m9.5 19c-5.238 0-9.5-4.262-9.5-9.5s4.262-9.5 9.5-9.5 9.5 4.262 9.5 9.5-4.262 9.5-9.5 9.5zm0-17.5c-4.411 0-8 3.589-8 8s3.589 8 8 8 8-3.589 8-8-3.589-8-8-8z"/><path d="m23.25 24c-.192 0-.384-.073-.53-.22l-7.386-7.386c-.293-.293-.293-.768 0-1.061s.768-.293 1.061 0l7.386 7.386c.293.293.293.768 0 1.061-.147.147-.339.22-.531.22z"/></g></svg>