<svg height="512" viewBox="0 0 64 64" width="512" xmlns="http://www.w3.org/2000/svg"><g id="virus-covid19-corona-coronavirus-search"><path d="m9 15h46a4 4 0 0 1 4 4v34a0 0 0 0 1 0 0h-54a0 0 0 0 1 0 0v-34a4 4 0 0 1 4-4z" fill="#58595b"/><path d="m9 19h46v30h-46z" fill="#ffc477"/><path d="m52 19a30 30 0 0 1 -30 30h33v-30z" fill="#ffb655"/><path d="m3 53h58a0 0 0 0 1 0 0v4a4 4 0 0 1 -4 4h-50a4 4 0 0 1 -4-4v-4a0 0 0 0 1 0 0z" fill="#004fac"/><path d="m29 57h6a2 2 0 0 0 2-2v-2h-10v2a2 2 0 0 0 2 2z" fill="#f1f2f2"/><path d="m40 32.86a16 16 0 1 1 5.86-21.86 16.016 16.016 0 0 1 -5.86 21.86z" fill="#2488ff"/><path d="m45.232 37.919-3.464 2-1.732 1 6.914 11.975a4 4 0 0 0 5.464 1.464 4 4 0 0 0 1.464-5.464l-6.914-11.975z" fill="#006df0"/><path d="m45.34 37.856-3.579-6.2a14.638 14.638 0 0 1 -3.445 2.033l3.56 6.165 3.356-1.937z" fill="#58595b"/><g fill="#0b7"><circle cx="39" cy="19" r="1"/><path d="m37.657 14.757a1 1 0 1 0 -1.414 0 1 1 0 0 0 1.414 0z"/><circle cx="32" cy="12" r="1"/><path d="m27.757 13.343a1 1 0 1 0 0 1.414 1 1 0 0 0 0-1.414z"/><circle cx="25" cy="19" r="1"/><path d="m26.343 23.243a1 1 0 1 0 1.414 0 1 1 0 0 0 -1.414 0z"/><circle cx="32" cy="26" r="1"/><path d="m36.243 24.657a1 1 0 1 0 0-1.414 1 1 0 0 0 0 1.414z"/></g><circle cx="32" cy="19" fill="#ffcd00" r="12"/><path d="m32 7a11.986 11.986 0 0 0 -2 .18 11.986 11.986 0 0 1 0 23.64 11.994 11.994 0 1 0 2-23.82z" fill="#ebbf00"/><circle cx="32" cy="19" fill="#d51920" r="3"/><path d="m13 42h2a1 1 0 0 0 0-2h-2a1 1 0 0 0 0 2z" fill="#ff6243"/><path d="m19 42h17a1 1 0 0 0 0-2h-17a1 1 0 0 0 0 2z" fill="#ff6243"/><path d="m13 38h2a1 1 0 0 0 0-2h-2a1 1 0 0 0 0 2z" fill="#ff6243"/><path d="m19 38h6a1 1 0 0 0 0-2h-6a1 1 0 0 0 0 2z" fill="#ff6243"/><path d="m13 46h2a1 1 0 0 0 0-2h-2a1 1 0 0 0 0 2z" fill="#ff6243"/><path d="m19 46h17a1 1 0 0 0 0-2h-17a1 1 0 0 0 0 2z" fill="#ff6243"/><path d="m25 21a1.993 1.993 0 0 0 1.722-1h1.42a3.915 3.915 0 0 0 .425 1.019l-1.006 1.006a2 2 0 1 0 1.414 1.414l1.006-1.006a3.915 3.915 0 0 0 1.019.425v1.42a2 2 0 1 0 2 0v-1.42a3.915 3.915 0 0 0 1.019-.425l1.006 1.006a2 2 0 1 0 1.414-1.414l-1.006-1.006a3.915 3.915 0 0 0 .425-1.019h1.42a2 2 0 1 0 0-2h-1.42a3.915 3.915 0 0 0 -.425-1.019l1.006-1.006a2.016 2.016 0 0 0 .511.074 2 2 0 1 0 -1.925-1.488l-1.006 1.006a3.915 3.915 0 0 0 -1.019-.425v-1.42a2 2 0 1 0 -2 0v1.42a3.915 3.915 0 0 0 -1.019.425l-1.006-1.006a1.993 1.993 0 1 0 -1.925 1.488 2.016 2.016 0 0 0 .511-.074l1.006 1.006a3.915 3.915 0 0 0 -.425 1.019h-1.42a2 2 0 1 0 -1.722 3zm7-4a2 2 0 1 1 -2 2 2 2 0 0 1 2-2z" fill="#ed1c24"/></g></svg>