<svg height="512" viewBox="0 0 64 64" width="512" xmlns="http://www.w3.org/2000/svg"><g id="No_connection" data-name="No connection"><rect fill="#3d9ae2" height="44" rx="2" width="58" x="3" y="3"/><path d="m25 47h14v8h-14z" fill="#a7a9ac"/><path d="m19 55a2 2 0 0 0 -2 2v4h30v-4a2 2 0 0 0 -2-2z" fill="#58595b"/><path d="m7 7h50v34h-50z" fill="#ffcd00"/><path d="m34 26.5v-7.5h-4v7.5l2-3.5z" fill="#7ed63e"/><path d="m38 16h4v13h-4z" fill="#7ed63e"/><path d="m46 11h4v18h-4z" fill="#7ed63e"/><path d="m22 23h4v6h-4z" fill="#7ed63e"/><path d="m14 25h4v4h-4z" fill="#7ed63e"/><path d="m34 26.5-2-3.5-2 3.5-6 10.5h16z" fill="#d80027"/><path d="m22 41h35v-28c0 15.477-15.654 28-35 28z" fill="#ebbf00"/><g fill="#231f20"><path d="m46 30h4a1 1 0 0 0 1-1v-18a1 1 0 0 0 -1-1h-4a1 1 0 0 0 -1 1v18a1 1 0 0 0 1 1zm1-18h2v16h-2z"/><path d="m14 30h4a1 1 0 0 0 1-1v-4a1 1 0 0 0 -1-1h-4a1 1 0 0 0 -1 1v4a1 1 0 0 0 1 1zm1-4h2v2h-2z"/><path d="m59 2h-54a3 3 0 0 0 -3 3v40a3 3 0 0 0 3 3h19v6h-5a3 3 0 0 0 -3 3v5h32v-5a3 3 0 0 0 -3-3h-5v-6h19a3 3 0 0 0 3-3v-40a3 3 0 0 0 -3-3zm-14 54a1 1 0 0 1 1 1v3h-28v-3a1 1 0 0 1 1-1zm-19-2v-6h12v6zm34-9a1 1 0 0 1 -1 1h-54a1 1 0 0 1 -1-1v-40a1 1 0 0 1 1-1h54a1 1 0 0 1 1 1z"/><path d="m57 6h-50a1 1 0 0 0 -1 1v34a1 1 0 0 0 1 1h50a1 1 0 0 0 1-1v-34a1 1 0 0 0 -1-1zm-1 34h-48v-32h48z"/><path d="m38 30h4a1 1 0 0 0 1-1v-13a1 1 0 0 0 -1-1h-4a1 1 0 0 0 -1 1v13a1 1 0 0 0 1 1zm1-13h2v11h-2z"/><path d="m22 30h4a1 1 0 0 0 1-1v-6a1 1 0 0 0 -1-1h-4a1 1 0 0 0 -1 1v6a1 1 0 0 0 1 1zm1-6h2v4h-2z"/><path d="m23.135 37.5a1 1 0 0 0 .865.5h16a1 1 0 0 0 .868-1.5l-5.868-10.265v-7.235a1 1 0 0 0 -1-1h-4a1 1 0 0 0 -1 1v7.235l-5.868 10.265a1 1 0 0 0 .003 1zm7.865-17.5h2v2.735l-.132-.231a1.04 1.04 0 0 0 -1.736 0l-.132.231zm1 5.016 6.276 10.984h-12.553z"/><path d="m32 27a1 1 0 0 0 -1 1v3a1 1 0 0 0 2 0v-3a1 1 0 0 0 -1-1z"/><circle cx="32" cy="34" r="1"/></g></g></svg>